Moderustic-Regular.ufo
<glyph name="four" format="2">
  <advance width="665"/>
  <unicode hex="0034"/>
  <outline>
    <contour>
      <point x="54" y="171" type="line"/>
      <point x="404" y="171" type="line"/>
      <point x="404" y="0" type="line"/>
      <point x="494" y="0" type="line"/>
      <point x="494" y="171" type="line"/>
      <point x="630" y="171" type="line"/>
      <point x="630" y="252" type="line"/>
      <point x="494" y="252" type="line"/>
      <point x="494" y="700" type="line"/>
      <point x="380" y="700" type="line"/>
      <point x="54" y="217" type="line"/>
    </contour>
    <contour>
      <point x="175" y="252" type="line"/>
      <point x="404" y="591" type="line"/>
      <point x="404" y="252" type="line"/>
    </contour>
  </outline>
</glyph>
<glyph name="N" format="2">
  <advance width="732"/>
  <unicode hex="004E"/>
  <anchor x="366" y="719" name="top"/>
  <anchor x="366" y="-20" name="bottom"/>
  <outline>
    <contour>
      <point x="87" y="0" type="line"/>
      <point x="177" y="0" type="line" name="ab01"/>
      <point x="177" y="554" type="line" name="iv01"/>
      <point x="565" y="0" type="line" name="ab02"/>
      <point x="645" y="0" type="line"/>
      <point x="645" y="700" type="line" name="at01"/>
      <point x="555" y="700" type="line"/>
      <point x="555" y="146" type="line" name="iv02"/>
      <point x="167" y="700" type="line" name="at02"/>
      <point x="87" y="700" type="line"/>
    </contour>
  </outline>
</glyph>
<glyph name="Aogonek" format="2">
  <advance width="655"/>
  <unicode hex="0104"/>
  <anchor x="328" y="719" name="top"/>
  <anchor x="328" y="-20" name="bottom"/>
  <anchor x="106" y="500" name="topgr"/>
  <outline>
    <contour>
      <point x="143" y="141" type="line" name="dv01"/>
      <point x="509" y="141" type="line"/>
      <point x="475" y="216" type="line" name="dv03"/>
      <point x="177" y="216" type="line" name="dv02"/>
    </contour>
    <contour>
      <point x="32" y="0" type="line"/>
      <point x="128" y="0" type="line"/>
      <point x="342" y="700" type="line"/>
      <point x="259" y="700" type="line"/>
    </contour>
    <contour>
      <point x="527" y="0" type="line"/>
      <point x="623" y="0" type="line"/>
      <point x="396" y="700" type="line"/>
      <point x="313" y="700" type="line"/>
    </contour>
    <contour>
      <point x="624" y="-183" type="line"/>
      <point x="580" y="-171"/>
      <point x="557" y="-143"/>
      <point x="557" y="-103" type="curve" smooth="yes"/>
      <point x="557" y="-62"/>
      <point x="582" y="-22"/>
      <point x="623" y="0" type="curve"/>
      <point x="602" y="3" type="line"/>
      <point x="529" y="-12"/>
      <point x="482" y="-59"/>
      <point x="482" y="-110" type="curve" smooth="yes"/>
      <point x="482" y="-157"/>
      <point x="522" y="-196"/>
      <point x="582" y="-206" type="curve"/>
    </contour>
  </outline>
</glyph>
<glyph name="OE" format="2">
  <advance width="968"/>
  <unicode hex="0152"/>
  <anchor x="484" y="719" name="top"/>
  <anchor x="484" y="-20" name="bottom"/>
  <outline>
    <contour>
      <point x="500.316" y="80" type="curve"/>
      <point x="407.561" y="80" type="line" smooth="yes" name="ab01"/>
      <point x="251.084" y="80"/>
      <point x="157" y="181"/>
      <point x="157" y="349" type="curve" smooth="yes"/>
      <point x="157" y="518"/>
      <point x="251.084" y="620"/>
      <point x="407.561" y="620" type="curve" smooth="yes" name="at01"/>
      <point x="424.115" y="620"/>
      <point x="482.375" y="620"/>
      <point x="500.316" y="620" type="curve"/>
      <point x="500.316" y="515.108"/>
      <point x="500.316" y="176.823"/>
    </contour>
    <contour>
      <point x="580.315" y="0" type="curve"/>
      <point x="580.315" y="143.017"/>
      <point x="580.315" y="569.915"/>
      <point x="580.315" y="700" type="curve"/>
      <point x="399" y="700" type="line" smooth="yes" name="sv02"/>
      <point x="200" y="700"/>
      <point x="63" y="557"/>
      <point x="63" y="350" type="curve" smooth="yes" name="sv01"/>
      <point x="63" y="142"/>
      <point x="199" y="0"/>
      <point x="399" y="0" type="curve" smooth="yes"/>
      <point x="433.2" y="0"/>
      <point x="544.116" y="0"/>
    </contour>
    <contour>
      <point x="511.315" y="0" type="line"/>
      <point x="902.315" y="0" type="line" name="ab01"/>
      <point x="902.315" y="80" type="line" name="sv01"/>
      <point x="591.315" y="80" type="line"/>
      <point x="591.315" y="325" type="line" name="dv01"/>
      <point x="862.315" y="325" type="line"/>
      <point x="862.315" y="405" type="line"/>
      <point x="591.315" y="405" type="line" name="dv02"/>
      <point x="591.315" y="620" type="line" name="sv02"/>
      <point x="888.315" y="620" type="line"/>
      <point x="888.315" y="700" type="line" name="at01"/>
      <point x="511.315" y="700" type="line"/>
    </contour>
  </outline>
</glyph>
<glyph name="acutecomb" format="2">
  <advance width="287"/>
  <unicode hex="0301"/>
  <anchor x="140" y="700" name="top"/>
  <anchor x="124" y="500" name="_top"/>
  <outline>
    <contour>
      <point x="90" y="550" type="line"/>
      <point x="160" y="550" type="line"/>
      <point x="261" y="701" type="line"/>
      <point x="161" y="701" type="line"/>
    </contour>
  </outline>
</glyph>
<glyph name="Xi" format="2">
  <advance width="593"/>
  <unicode hex="039E"/>
  <outline>
    <contour>
      <point x="75" y="620" type="line"/>
      <point x="528" y="620" type="line"/>
      <point x="528" y="700" type="line"/>
      <point x="75" y="700" type="line"/>
    </contour>
    <contour>
      <point x="75" y="0" type="line"/>
      <point x="528" y="0" type="line"/>
      <point x="528" y="80" type="line"/>
      <point x="75" y="80" type="line"/>
    </contour>
    <contour>
      <point x="131" y="311" type="line"/>
      <point x="473" y="311" type="line"/>
      <point x="473" y="387" type="line"/>
      <point x="131" y="387" type="line"/>
    </contour>
  </outline>
</glyph>
<glyph name="Zecyr" format="2">
  <advance width="578"/>
  <unicode hex="0417"/>
  <anchor x="294" y="-20" name="bottom"/>
  <anchor x="294" y="719" name="top"/>
  <outline>
    <contour>
      <point x="35" y="102" type="line"/>
      <point x="107.072" y="20"/>
      <point x="186.15" y="-20"/>
      <point x="284.248" y="-20" type="curve" smooth="yes"/>
      <point x="430.393" y="-20"/>
      <point x="537.5" y="69"/>
      <point x="537.5" y="197" type="curve" smooth="yes"/>
      <point x="537.5" y="294"/>
      <point x="476.339" y="355"/>
      <point x="346" y="371" type="curve"/>
      <point x="463" y="399"/>
      <point x="505" y="451"/>
      <point x="505" y="534" type="curve" smooth="yes"/>
      <point x="505" y="648"/>
      <point x="425" y="720"/>
      <point x="286" y="720" type="curve" smooth="yes"/>
      <point x="183" y="720"/>
      <point x="99" y="680"/>
      <point x="35" y="599" type="curve"/>
      <point x="93" y="541" type="line"/>
      <point x="147" y="607.673"/>
      <point x="212" y="640"/>
      <point x="295" y="640" type="curve" smooth="yes"/>
      <point x="377" y="640"/>
      <point x="415" y="607.866"/>
      <point x="415" y="541.59" type="curve" smooth="yes"/>
      <point x="415" y="458.243"/>
      <point x="356" y="400"/>
      <point x="241" y="399" type="curve"/>
      <point x="241" y="329" type="line"/>
      <point x="365.7" y="339"/>
      <point x="447.5" y="283"/>
      <point x="447.5" y="189" type="curve" smooth="yes"/>
      <point x="447.5" y="109"/>
      <point x="388.584" y="60"/>
      <point x="283.732" y="60" type="curve" smooth="yes"/>
      <point x="199.85" y="60"/>
      <point x="137.937" y="91"/>
      <point x="93" y="160" type="curve"/>
    </contour>
  </outline>
</glyph>
<glyph name="Yacyr" format="2">
  <advance width="648"/>
  <unicode hex="042F"/>
  <anchor x="324" y="719" name="top"/>
  <anchor x="324" y="-20" name="bottom"/>
  <outline>
    <contour>
      <point x="470" y="0" type="line"/>
      <point x="560" y="0" type="line"/>
      <point x="560" y="700" type="line"/>
      <point x="292.216" y="700" type="line" smooth="yes"/>
      <point x="137.725" y="700"/>
      <point x="44" y="619"/>
      <point x="44" y="484" type="curve" smooth="yes"/>
      <point x="44" y="348"/>
      <point x="140.883" y="264"/>
      <point x="296.515" y="264" type="curve" smooth="yes"/>
      <point x="548" y="264" type="line"/>
      <point x="548" y="344" type="line"/>
      <point x="300.015" y="344" type="line" smooth="yes"/>
      <point x="178.617" y="344"/>
      <point x="134" y="381"/>
      <point x="134" y="482" type="curve" smooth="yes"/>
      <point x="134" y="583"/>
      <point x="179.009" y="620"/>
      <point x="300.43" y="620" type="curve" smooth="yes"/>
      <point x="470" y="620" type="line"/>
    </contour>
    <contour>
      <point x="41" y="0" type="line"/>
      <point x="142" y="0" type="line"/>
      <point x="305" y="281" type="line"/>
      <point x="231" y="333" type="line"/>
    </contour>
  </outline>
</glyph>
<glyph name="zhecyr" format="2">
  <advance width="800"/>
  <unicode hex="0436"/>
  <anchor x="398" y="-20" name="bottom"/>
  <anchor x="400" y="520" name="top"/>
  <outline>
    <contour>
      <point x="74" y="500" type="line" name="av02"/>
      <point x="91" y="350" type="line"/>
      <point x="97.66" y="302.77"/>
      <point x="116.43" y="269.11"/>
      <point x="147.51" y="249.9" type="curve"/>
      <point x="36" y="0" type="line"/>
      <point x="137" y="0" type="line" name="ab02"/>
      <point x="239.99" y="231" type="line"/>
      <point x="357" y="231" type="line" name="dv01"/>
      <point x="357" y="0" type="line" name="ab01"/>
      <point x="447" y="0" type="line"/>
      <point x="447" y="231" type="line" name="dv01"/>
      <point x="560.01" y="231" type="line"/>
      <point x="663" y="0" type="line" name="ab02"/>
      <point x="764" y="0" type="line"/>
      <point x="652.03" y="250.93" type="line"/>
      <point x="682.79" y="270.77"/>
      <point x="701.38" y="305.04"/>
      <point x="708" y="352" type="curve"/>
      <point x="726" y="500" type="line" name="av02"/>
      <point x="635" y="500" type="line"/>
      <point x="623" y="385" type="line"/>
      <point x="616" y="329"/>
      <point x="599" y="301"/>
      <point x="535" y="301" type="curve" smooth="yes"/>
      <point x="447" y="301" type="line" name="dv02"/>
      <point x="447" y="500" type="line"/>
      <point x="357" y="500" type="line" name="av01"/>
      <point x="357" y="301" type="line" name="dv02"/>
      <point x="266" y="301" type="line" smooth="yes"/>
      <point x="201" y="301"/>
      <point x="184" y="329"/>
      <point x="177" y="385" type="curve"/>
      <point x="165" y="500" type="line"/>
    </contour>
  </outline>
</glyph>
<glyph name="yacyr" format="2">
  <advance width="540"/>
  <unicode hex="044F"/>
  <anchor x="270" y="-20" name="bottom"/>
  <anchor x="270" y="520" name="top"/>
  <outline>
    <contour>
      <point x="37" y="0" type="line"/>
      <point x="137" y="0" type="line"/>
      <point x="219" y="182" type="line"/>
      <point x="370" y="182" type="line"/>
      <point x="370" y="0" type="line"/>
      <point x="460" y="0" type="line"/>
      <point x="460" y="500" type="line"/>
      <point x="241" y="500" type="line" smooth="yes"/>
      <point x="112" y="500"/>
      <point x="46" y="447"/>
      <point x="46" y="354" type="curve" smooth="yes"/>
      <point x="46" y="288"/>
      <point x="79" y="239"/>
      <point x="137" y="206" type="curve"/>
    </contour>
    <contour>
      <point x="370" y="252" type="line"/>
      <point x="257" y="252" type="line" smooth="yes"/>
      <point x="174" y="252"/>
      <point x="136" y="282"/>
      <point x="136" y="344" type="curve" smooth="yes"/>
      <point x="136" y="405"/>
      <point x="173" y="430"/>
      <point x="257" y="430" type="curve" smooth="yes"/>
      <point x="370" y="430" type="line"/>
    </contour>
  </outline>
</glyph>
<glyph name="six.superior" format="2">
  <advance width="450"/>
  <unicode hex="2076"/>
  <outline>
    <contour>
      <point x="132" y="500" type="curve" smooth="yes"/>
      <point x="132" y="561"/>
      <point x="169" y="599"/>
      <point x="230" y="599" type="curve" smooth="yes"/>
      <point x="288" y="599"/>
      <point x="327" y="565"/>
      <point x="327" y="503" type="curve" smooth="yes"/>
      <point x="327" y="443"/>
      <point x="291" y="404"/>
      <point x="229" y="404" type="curve" smooth="yes"/>
      <point x="170" y="404"/>
      <point x="132" y="439"/>
    </contour>
    <contour>
      <point x="384" y="779" type="line"/>
      <point x="356" y="811"/>
      <point x="296" y="835"/>
      <point x="238" y="835" type="curve" smooth="yes"/>
      <point x="123" y="835"/>
      <point x="51" y="741"/>
      <point x="51" y="572" type="curve" smooth="yes"/>
      <point x="51" y="403"/>
      <point x="128" y="339"/>
      <point x="233" y="339" type="curve" smooth="yes"/>
      <point x="338" y="339"/>
      <point x="401" y="412"/>
      <point x="401" y="509" type="curve" smooth="yes"/>
      <point x="401" y="605"/>
      <point x="329" y="659"/>
      <point x="248" y="659" type="curve" smooth="yes"/>
      <point x="190" y="659"/>
      <point x="134" y="632"/>
      <point x="110" y="585" type="curve"/>
      <point x="110" y="711"/>
      <point x="166" y="770"/>
      <point x="240" y="770" type="curve" smooth="yes"/>
      <point x="278" y="770"/>
      <point x="312" y="755"/>
      <point x="335" y="730" type="curve"/>
    </contour>
  </outline>
</glyph>
<glyph name="J.ss12" format="2">
  <advance width="480"/>
  <anchor x="359" y="719" name="top"/>
  <anchor x="196" y="-20" name="bottom"/>
  <outline>
    <contour>
      <point x="11" y="26" type="line"/>
      <point x="55" y="0"/>
      <point x="105" y="-20"/>
      <point x="183" y="-20" type="curve" smooth="yes"/>
      <point x="325" y="-20"/>
      <point x="401" y="47"/>
      <point x="401" y="222" type="curve" smooth="yes"/>
      <point x="401" y="700" type="line"/>
      <point x="311" y="700" type="line"/>
      <point x="311" y="217" type="line" smooth="yes"/>
      <point x="311" y="109"/>
      <point x="273" y="60"/>
      <point x="178" y="60" type="curve" smooth="yes"/>
      <point x="139" y="60"/>
      <point x="85" y="68"/>
      <point x="20" y="91" type="curve"/>
    </contour>
  </outline>
</glyph>
<glyph name="aogonek.ss10" format="2">
  <advance width="558"/>
  <anchor x="274" y="520" name="top"/>
  <anchor x="274" y="-20" name="bottom"/>
  <outline>
    <contour>
      <point x="383" y="166" type="line" smooth="yes"/>
      <point x="383" y="109"/>
      <point x="323" y="50"/>
      <point x="235" y="50" type="curve" smooth="yes"/>
      <point x="182" y="50"/>
      <point x="135" y="71"/>
      <point x="135" y="133" type="curve" smooth="yes"/>
      <point x="135" y="185"/>
      <point x="169" y="222"/>
      <point x="257" y="222" type="curve" smooth="yes"/>
      <point x="321" y="222"/>
      <point x="362" y="242"/>
      <point x="383" y="273" type="curve"/>
    </contour>
    <contour>
      <point x="474" y="-183" type="line"/>
      <point x="430" y="-171"/>
      <point x="407" y="-143"/>
      <point x="407" y="-103" type="curve" smooth="yes"/>
      <point x="407" y="-62"/>
      <point x="432" y="-32"/>
      <point x="473" y="-10" type="curve"/>
      <point x="473" y="352" type="line" smooth="yes"/>
      <point x="473" y="456"/>
      <point x="400" y="520"/>
      <point x="269" y="520" type="curve" smooth="yes"/>
      <point x="176" y="520"/>
      <point x="104" y="488"/>
      <point x="61" y="435" type="curve"/>
      <point x="88" y="350" type="line"/>
      <point x="122" y="410"/>
      <point x="190" y="450"/>
      <point x="267" y="450" type="curve" smooth="yes"/>
      <point x="348" y="450"/>
      <point x="382" y="405"/>
      <point x="382" y="361" type="curve" smooth="yes"/>
      <point x="382" y="313"/>
      <point x="343" y="281"/>
      <point x="245" y="281" type="curve" smooth="yes"/>
      <point x="124" y="281"/>
      <point x="45" y="232"/>
      <point x="45" y="135" type="curve" smooth="yes"/>
      <point x="45" y="38"/>
      <point x="124" y="-20"/>
      <point x="212" y="-20" type="curve" smooth="yes"/>
      <point x="297.92" y="-20"/>
      <point x="358.35" y="36.59"/>
      <point x="383.37" y="89.58" type="curve"/>
      <point x="459.96" y="4.48" type="line"/>
      <point x="382.43" y="-8.64"/>
      <point x="332" y="-57.17"/>
      <point x="332" y="-110" type="curve" smooth="yes"/>
      <point x="332" y="-157"/>
      <point x="372" y="-196"/>
      <point x="432" y="-206" type="curve"/>
    </contour>
  </outline>
</glyph>
<glyph name="braceright.case" format="2">
  <advance width="366"/>
  <outline>
    <contour>
      <point x="52" y="-276" type="line"/>
      <point x="177.374" y="-208.35"/>
      <point x="219.5" y="-114.229"/>
      <point x="219.5" y="-15.205" type="curve" smooth="yes"/>
      <point x="219.5" y="225" type="line" smooth="yes"/>
      <point x="219.5" y="296"/>
      <point x="280.235" y="332"/>
      <point x="334" y="342" type="curve"/>
      <point x="334" y="359" type="line"/>
      <point x="259.326" y="370"/>
      <point x="219.5" y="431"/>
      <point x="219.5" y="481" type="curve" smooth="yes"/>
      <point x="219.5" y="662.032" type="line" smooth="yes"/>
      <point x="219.5" y="757.15"/>
      <point x="177.374" y="859.428"/>
      <point x="52" y="930" type="curve"/>
      <point x="39" y="901" type="line"/>
      <point x="113.588" y="869.229"/>
      <point x="129.5" y="792.363"/>
      <point x="129.5" y="669.378" type="curve" smooth="yes"/>
      <point x="129.5" y="489" type="line" smooth="yes"/>
      <point x="129.5" y="425"/>
      <point x="143.563" y="385"/>
      <point x="241" y="349" type="curve"/>
      <point x="140.55" y="311"/>
      <point x="129.5" y="262"/>
      <point x="129.5" y="198" type="curve" smooth="yes"/>
      <point x="129.5" y="-25.967" type="line" smooth="yes"/>
      <point x="129.5" y="-145.286"/>
      <point x="115.579" y="-216.681"/>
      <point x="41" y="-247" type="curve"/>
    </contour>
  </outline>
</glyph>
<glyph name="brevecycomb" format="2">
  <advance width="336"/>
  <anchor x="168" y="500" name="_top"/>
  <anchor x="168" y="680" name="top"/>
  <outline>
    <contour>
      <point x="25" y="701" type="line"/>
      <point x="32.538" y="608.891"/>
      <point x="86.165" y="552"/>
      <point x="168.938" y="552" type="curve" smooth="yes"/>
      <point x="250.545" y="552"/>
      <point x="305.339" y="607.536"/>
      <point x="314" y="701" type="curve"/>
      <point x="253" y="701" type="line"/>
      <point x="248.35" y="643.321"/>
      <point x="216.527" y="606"/>
      <point x="167.467" y="606" type="curve" smooth="yes"/>
      <point x="119.733" y="606"/>
      <point x="90.562" y="639.929"/>
      <point x="86" y="701" type="curve"/>
    </contour>
  </outline>
</glyph>
<glyph name="c.ss12" format="2">
  <advance width="532"/>
  <anchor x="291" y="520" name="top"/>
  <anchor x="291" y="-20" name="bottom"/>
  <outline>
    <contour>
      <point x="478" y="134" type="line"/>
      <point x="419.305" y="77"/>
      <point x="361.823" y="50"/>
      <point x="294.076" y="50" type="curve" smooth="yes"/>
      <point x="192.456" y="50"/>
      <point x="136" y="131"/>
      <point x="136" y="255" type="curve" smooth="yes"/>
      <point x="136" y="377"/>
      <point x="188.394" y="450"/>
      <point x="292.153" y="450" type="curve" smooth="yes"/>
      <point x="355.848" y="450"/>
      <point x="403.104" y="431"/>
      <point x="479" y="377" type="curve"/>
      <point x="486" y="441" type="line"/>
      <point x="434.528" y="494"/>
      <point x="369.263" y="520"/>
      <point x="290.742" y="520" type="curve" smooth="yes"/>
      <point x="135.739" y="520"/>
      <point x="46" y="411"/>
      <point x="46" y="255" type="curve" smooth="yes"/>
      <point x="46" y="91"/>
      <point x="141.878" y="-20"/>
      <point x="296.914" y="-20" type="curve" smooth="yes"/>
      <point x="371.372" y="-20"/>
      <point x="427.471" y="7"/>
      <point x="485" y="69" type="curve"/>
    </contour>
  </outline>
</glyph>
<glyph name="dotlessi.ss11" format="2">
  <advance width="370"/>
  <anchor x="185" y="520" name="top"/>
  <anchor x="185" y="-20" name="bottom"/>
  <anchor x="332" y="-3" name="ogonek"/>
  <outline>
    <contour>
      <point x="140" y="0" type="line" name="ab01"/>
      <point x="230" y="0" type="line"/>
      <point x="230" y="500" type="line"/>
      <point x="140" y="500" type="line" name="av01"/>
    </contour>
    <contour>
      <point x="35" y="430" type="line"/>
      <point x="335" y="430" type="line"/>
      <point x="335" y="500" type="line"/>
      <point x="35" y="500" type="line"/>
    </contour>
    <contour>
      <point x="35" y="0" type="line"/>
      <point x="335" y="0" type="line"/>
      <point x="335" y="70" type="line"/>
      <point x="35" y="70" type="line"/>
    </contour>
  </outline>
</glyph>
<glyph name="epsilon.ss12" format="2">
  <advance width="480"/>
  <anchor x="240" y="519" name="topgr"/>
  <outline>
    <contour>
      <point x="426" y="123" type="line"/>
      <point x="348" y="69.264"/>
      <point x="309" y="50"/>
      <point x="252" y="50" type="curve" smooth="yes"/>
      <point x="180" y="50"/>
      <point x="139" y="81.179"/>
      <point x="139" y="138.509" type="curve" smooth="yes"/>
      <point x="139" y="198.855"/>
      <point x="186" y="224"/>
      <point x="358" y="224" type="curve"/>
      <point x="358" y="287" type="line"/>
      <point x="210" y="287"/>
      <point x="157" y="315.173"/>
      <point x="157" y="375.543" type="curve" smooth="yes"/>
      <point x="157" y="422.833"/>
      <point x="189" y="450"/>
      <point x="259" y="450" type="curve" smooth="yes"/>
      <point x="305" y="450"/>
      <point x="338" y="437.833"/>
      <point x="426" y="377" type="curve"/>
      <point x="433" y="442" type="line"/>
      <point x="377" y="495"/>
      <point x="313" y="520"/>
      <point x="242" y="520" type="curve" smooth="yes"/>
      <point x="139" y="520"/>
      <point x="68" y="468"/>
      <point x="68" y="378" type="curve" smooth="yes"/>
      <point x="68" y="306"/>
      <point x="114" y="270"/>
      <point x="230" y="260" type="curve"/>
      <point x="106" y="261"/>
      <point x="49" y="221"/>
      <point x="49" y="135" type="curve" smooth="yes"/>
      <point x="49" y="36"/>
      <point x="123" y="-20"/>
      <point x="237" y="-20" type="curve" smooth="yes"/>
      <point x="313" y="-20"/>
      <point x="377" y="5"/>
      <point x="433" y="58" type="curve"/>
    </contour>
  </outline>
</glyph>
<glyph name="f_eth" format="2">
  <advance width="961"/>
  <outline>
    <contour>
      <point x="911" y="270.3" type="curve" smooth="yes"/>
      <point x="911" y="394"/>
      <point x="843.57" y="517.73"/>
      <point x="737.82" y="609.23" type="curve"/>
      <point x="859.83" y="658.36" type="line"/>
      <point x="843.83" y="694.36" type="line"/>
      <point x="707.74" y="633.59" type="line"/>
      <point x="610.21" y="707.5"/>
      <point x="485.91" y="755"/>
      <point x="353.7" y="755" type="curve" smooth="yes"/>
      <point x="213.4" y="755"/>
      <point x="139" y="701.54"/>
      <point x="139" y="557.83" type="curve" smooth="yes"/>
      <point x="139" y="500" type="line" name="dv04"/>
      <point x="32" y="500" type="line"/>
      <point x="32" y="430" type="line"/>
      <point x="139" y="430" type="line" name="dv03"/>
      <point x="139" y="0" type="line" name="ab01"/>
      <point x="229" y="0" type="line"/>
      <point x="229" y="430" type="line" name="sv01"/>
      <point x="370" y="430" type="line"/>
      <point x="370" y="500" type="line" name="sv02"/>
      <point x="229" y="500" type="line"/>
      <point x="229" y="568.07" type="line" smooth="yes"/>
      <point x="229" y="649.33"/>
      <point x="258.2" y="685"/>
      <point x="366.02" y="685" type="curve" smooth="yes"/>
      <point x="448.59" y="685"/>
      <point x="550.24" y="655.03"/>
      <point x="637.99" y="603.9" type="curve"/>
      <point x="501" y="552" type="line"/>
      <point x="517" y="519" type="line"/>
      <point x="671.98" y="582.54" type="line"/>
      <point x="754.11" y="526.9"/>
      <point x="818.56" y="451.88"/>
      <point x="833.9" y="365.83" type="curve"/>
      <point x="816.82" y="410.69"/>
      <point x="748.97" y="471"/>
      <point x="654.22" y="471" type="curve" smooth="yes"/>
      <point x="530.87" y="471"/>
      <point x="425" y="377"/>
      <point x="425" y="229" type="curve" smooth="yes"/>
      <point x="425" y="85"/>
      <point x="522.59" y="-20"/>
      <point x="668" y="-20" type="curve" smooth="yes"/>
      <point x="810.48" y="-20"/>
      <point x="911" y="87.4"/>
    </contour>
    <contour>
      <point x="665.11" y="51" type="curve" smooth="yes"/>
      <point x="575.62" y="51"/>
      <point x="515" y="115"/>
      <point x="515" y="225" type="curve" smooth="yes"/>
      <point x="515" y="333"/>
      <point x="572.73" y="401"/>
      <point x="668.96" y="401" type="curve" smooth="yes"/>
      <point x="758.45" y="401"/>
      <point x="821" y="341"/>
      <point x="821" y="232" type="curve" smooth="yes"/>
      <point x="821" y="126"/>
      <point x="761.33" y="51"/>
    </contour>
  </outline>
</glyph>
<glyph name="ljecyr.ss08" format="2">
  <advance width="780"/>
  <outline>
    <contour>
      <point x="422" y="0" type="line"/>
      <point x="576" y="0" type="line" smooth="yes"/>
      <point x="695" y="0"/>
      <point x="740" y="66.203"/>
      <point x="740" y="159.102" type="curve" smooth="yes"/>
      <point x="740" y="252"/>
      <point x="691" y="315"/>
      <point x="564" y="315" type="curve" smooth="yes"/>
      <point x="368" y="315" type="line"/>
      <point x="368" y="245" type="line"/>
      <point x="570" y="245" type="line" smooth="yes"/>
      <point x="620" y="245"/>
      <point x="650" y="212.234"/>
      <point x="650" y="158" type="curve" smooth="yes"/>
      <point x="650" y="103.766"/>
      <point x="620" y="71"/>
      <point x="572" y="71" type="curve" smooth="yes"/>
      <point x="462" y="71" type="line"/>
    </contour>
    <contour>
      <point x="35" y="0" type="line"/>
      <point x="134" y="0" type="line"/>
      <point x="275" y="408" type="line"/>
      <point x="416" y="0" type="line"/>
      <point x="515" y="0" type="line"/>
      <point x="323" y="500" type="line"/>
      <point x="227" y="500" type="line"/>
    </contour>
  </outline>
</glyph>
<glyph name="one.ss09" format="2">
  <advance width="514"/>
  <outline>
    <contour>
      <point x="232" y="0" type="line"/>
      <point x="322" y="0" type="line"/>
      <point x="322" y="700" type="line"/>
      <point x="238" y="700" type="line"/>
      <point x="238" y="616"/>
      <point x="169.596" y="560"/>
      <point x="59" y="560" type="curve"/>
      <point x="59" y="480" type="line"/>
      <point x="166.004" y="480"/>
      <point x="232" y="520.4"/>
      <point x="232" y="581" type="curve"/>
    </contour>
    <contour>
      <point x="50" y="0" type="line"/>
      <point x="474" y="0" type="line"/>
      <point x="474" y="80" type="line"/>
      <point x="50" y="80" type="line"/>
    </contour>
  </outline>
</glyph>
<glyph name="scedilla.ss09" format="2">
  <advance width="490"/>
  <anchor x="235" y="520" name="top"/>
  <anchor x="225" y="-218" name="bottom"/>
  <outline>
    <contour>
      <point x="50" y="150" type="line"/>
      <point x="62" y="40.355"/>
      <point x="134" y="-20"/>
      <point x="252" y="-20" type="curve" smooth="yes"/>
      <point x="370" y="-20"/>
      <point x="436" y="40"/>
      <point x="436" y="129" type="curve" smooth="yes"/>
      <point x="436" y="221"/>
      <point x="364.946" y="274.595"/>
      <point x="250" y="290" type="curve" smooth="yes"/>
      <point x="170.945" y="300.595"/>
      <point x="139" y="326.169"/>
      <point x="139" y="373.486" type="curve" smooth="yes"/>
      <point x="139" y="425.838"/>
      <point x="178" y="450"/>
      <point x="234" y="450" type="curve" smooth="yes"/>
      <point x="302" y="450"/>
      <point x="341" y="412.626"/>
      <point x="344" y="350" type="curve"/>
      <point x="434" y="350" type="line"/>
      <point x="422" y="459.645"/>
      <point x="349" y="520"/>
      <point x="231" y="520" type="curve" smooth="yes"/>
      <point x="113" y="520"/>
      <point x="50" y="460"/>
      <point x="50" y="369" type="curve" smooth="yes"/>
      <point x="50" y="280"/>
      <point x="109.977" y="234.835"/>
      <point x="217" y="220" type="curve" smooth="yes"/>
      <point x="311.977" y="206.835"/>
      <point x="345" y="173.788"/>
      <point x="345" y="126.487" type="curve" smooth="yes"/>
      <point x="345" y="74.154"/>
      <point x="306" y="50"/>
      <point x="249" y="50" type="curve" smooth="yes"/>
      <point x="182" y="50"/>
      <point x="146" y="84.337"/>
      <point x="140" y="150" type="curve"/>
    </contour>
    <contour>
      <point x="129" y="-205" type="line"/>
      <point x="150" y="-211"/>
      <point x="174" y="-218"/>
      <point x="213" y="-218" type="curve" smooth="yes"/>
      <point x="293" y="-218"/>
      <point x="339" y="-189"/>
      <point x="339" y="-137" type="curve" smooth="yes"/>
      <point x="339" y="-90"/>
      <point x="302" y="-64"/>
      <point x="243" y="-64" type="curve"/>
      <point x="287.74" y="14.895" type="line"/>
      <point x="230.74" y="14.895" type="line"/>
      <point x="176" y="-86" type="line"/>
      <point x="191" y="-84"/>
      <point x="202" y="-82"/>
      <point x="215" y="-82" type="curve" smooth="yes"/>
      <point x="250" y="-82"/>
      <point x="271" y="-97"/>
      <point x="271" y="-132" type="curve" smooth="yes"/>
      <point x="271" y="-166"/>
      <point x="252" y="-182"/>
      <point x="210" y="-182" type="curve" smooth="yes"/>
      <point x="187" y="-182"/>
      <point x="165" y="-177"/>
      <point x="148" y="-171" type="curve"/>
    </contour>
  </outline>
</glyph>
<glyph name="seven.osf" format="2">
  <advance width="565"/>
  <outline>
    <contour>
      <point x="142" y="-148" type="line"/>
      <point x="240" y="-148" type="line"/>
      <point x="520" y="512" type="line"/>
      <point x="520" y="552" type="line"/>
      <point x="54" y="552" type="line"/>
      <point x="54" y="472" type="line"/>
      <point x="405" y="472" type="line"/>
    </contour>
  </outline>
</glyph>
<glyph name="softcyr.loclBGR" format="2">
  <advance width="516"/>
  <anchor x="258" y="-20" name="bottom"/>
  <anchor x="258" y="520" name="top"/>
  <outline>
    <contour>
      <point x="105" y="265" type="line"/>
      <point x="298.284" y="265" type="line" smooth="yes"/>
      <point x="367.007" y="265"/>
      <point x="396" y="224.224"/>
      <point x="396" y="157.5" type="curve" smooth="yes"/>
      <point x="396" y="93"/>
      <point x="352.216" y="50"/>
      <point x="286.54" y="50" type="curve" smooth="yes"/>
      <point x="210.11" y="50"/>
      <point x="170.583" y="81.185"/>
      <point x="170.499" y="141.57" type="curve" smooth="yes"/>
      <point x="170" y="500" type="line"/>
      <point x="80" y="500" type="line"/>
      <point x="80.499" y="148.48" type="line" smooth="yes"/>
      <point x="80.655" y="38.449"/>
      <point x="151.998" y="-20"/>
      <point x="286.597" y="-20" type="curve" smooth="yes"/>
      <point x="415.524" y="-20"/>
      <point x="486" y="51"/>
      <point x="486" y="162.571" type="curve" smooth="yes"/>
      <point x="486" y="270.762"/>
      <point x="413.177" y="335"/>
      <point x="291.806" y="335" type="curve" smooth="yes"/>
      <point x="105" y="335" type="line"/>
    </contour>
  </outline>
</glyph>
<glyph name="three.osf.ss10" format="2">
  <advance width="550"/>
  <outline>
    <contour>
      <point x="17" y="-53" type="line"/>
      <point x="83" y="-128"/>
      <point x="166" y="-170"/>
      <point x="266" y="-170" type="curve" smooth="yes"/>
      <point x="405" y="-170"/>
      <point x="500" y="-85.802"/>
      <point x="500" y="30.228" type="curve" smooth="yes"/>
      <point x="500" y="151.391"/>
      <point x="401" y="213"/>
      <point x="192" y="213" type="curve"/>
      <point x="192" y="168" type="line"/>
      <point x="350" y="168"/>
      <point x="409" y="102.449"/>
      <point x="409" y="30.656" type="curve" smooth="yes"/>
      <point x="409" y="-46.34"/>
      <point x="342" y="-89"/>
      <point x="262" y="-89" type="curve" smooth="yes"/>
      <point x="192" y="-89"/>
      <point x="121" y="-62"/>
      <point x="53" y="51" type="curve"/>
    </contour>
    <contour>
      <point x="52" y="349" type="line"/>
      <point x="109" y="443"/>
      <point x="168" y="489"/>
      <point x="256" y="489" type="curve" smooth="yes"/>
      <point x="333" y="489"/>
      <point x="389" y="449.362"/>
      <point x="389" y="377.388" type="curve" smooth="yes"/>
      <point x="389" y="309.586"/>
      <point x="336" y="247"/>
      <point x="192" y="247" type="curve"/>
      <point x="192" y="202" type="line"/>
      <point x="387" y="202"/>
      <point x="480" y="259.564"/>
      <point x="480" y="375.721" type="curve" smooth="yes"/>
      <point x="480" y="488.793"/>
      <point x="393" y="570"/>
      <point x="258" y="570" type="curve" smooth="yes"/>
      <point x="163" y="570"/>
      <point x="84" y="530"/>
      <point x="16" y="453" type="curve"/>
    </contour>
  </outline>
</glyph>
<glyph name="uogonek.ss05" format="2">
  <advance width="580"/>
  <anchor x="290" y="-20" name="bottom"/>
  <anchor x="290" y="520" name="top"/>
  <outline>
    <contour>
      <point x="419" y="203" type="line"/>
      <point x="407" y="263" type="line"/>
      <point x="407" y="125.293"/>
      <point x="357" y="50"/>
      <point x="269" y="50" type="curve" smooth="yes"/>
      <point x="200" y="50"/>
      <point x="166" y="96.792"/>
      <point x="166" y="184.403" type="curve" smooth="yes"/>
      <point x="166" y="500" type="line"/>
      <point x="76" y="500" type="line"/>
      <point x="76" y="196" type="line" smooth="yes"/>
      <point x="76" y="51"/>
      <point x="136" y="-20"/>
      <point x="245" y="-20" type="curve" smooth="yes"/>
      <point x="339" y="-20"/>
      <point x="392" y="32"/>
      <point x="419" y="130" type="curve"/>
    </contour>
    <contour>
      <point x="407" y="0" type="line" name="ab01"/>
      <point x="497" y="0" type="line"/>
      <point x="497" y="500" type="line"/>
      <point x="407" y="500" type="line" name="av01"/>
    </contour>
    <contour>
      <point x="498" y="-183" type="line"/>
      <point x="454" y="-171"/>
      <point x="431" y="-143"/>
      <point x="431" y="-103" type="curve" smooth="yes"/>
      <point x="431" y="-62"/>
      <point x="456" y="-22"/>
      <point x="497" y="0" type="curve"/>
      <point x="476" y="3" type="line"/>
      <point x="403" y="-12"/>
      <point x="356" y="-59"/>
      <point x="356" y="-110" type="curve" smooth="yes"/>
      <point x="356" y="-157"/>
      <point x="396" y="-196"/>
      <point x="456" y="-206" type="curve"/>
    </contour>
  </outline>
</glyph>
